<svg xmlns="http://www.w3.org/2000/svg" viewBox="0 0 1000 1000"><defs><style>.cls-1{fill:#d5d5d5}.cls-2{fill:#282424}.cls-3{fill:#2c688e}.cls-4{fill:#68adea}.cls-5{fill:#428ae0}.cls-13,.cls-6,.cls-9{fill:#fff}.cls-15,.cls-25,.cls-6,.cls-8{stroke:#0a4471}.cls-28,.cls-6,.cls-8,.cls-9{stroke-linejoin:round}.cls-10,.cls-18,.cls-25,.cls-26,.cls-28,.cls-6,.cls-9{stroke-width:2px}.cls-7{fill:#0a4471}.cls-10,.cls-12,.cls-15,.cls-16,.cls-17,.cls-18,.cls-25,.cls-26,.cls-28,.cls-8{fill:none}.cls-10,.cls-17,.cls-18,.cls-28,.cls-9{stroke:#2c688e}.cls-10,.cls-12,.cls-15,.cls-16,.cls-17,.cls-18,.cls-25,.cls-26{stroke-miterlimit:10}.cls-11{fill:#de292e}.cls-12{stroke:#fff}.cls-12,.cls-15,.cls-16,.cls-17{stroke-width:1.86px}.cls-16{stroke:#de292e}.cls-18{stroke-dasharray:5 5}.cls-23{fill:#ffaa7a}.cls-26{stroke:#68adea}</style></defs><g id="illustration"><path class="cls-1" d="M142 801.34l130.9 75.73a5.37 5.37 0 005.37 0l6.67-3.85a1.93 1.93 0 000-3.34l-132.5-77-15.8-3.26a.89.89 0 00-1 1.34z"/><path class="cls-2" d="M140.9 788.51a.25.25 0 00-.2 0 .77.77 0 00-.35.6.34.34 0 000 .16l3.42 4.67 3-4.81z"/><path class="cls-3" d="M146.65 788.79a1.84 1.84 0 00-1.3.28 5 5 0 00-2.3 4 1.89 1.89 0 00.34 1.17l4.4 6 5.9-10.6z"/><path class="cls-4" d="M148.43 793.42l123.18 70.89 3.09-5.14-120-69.24a3 3 0 00-3.22.25 8.93 8.93 0 00-3.05 3.24z"/><path class="cls-5" d="M147.1 797.83a3 3 0 001.47 2.95l119.68 69.1 3.36-5.57-123.18-70.89a9 9 0 00-1.33 4.41z"/><path class="cls-2" d="M243.17 840.32l-2.72.54 28.36 16.36a1.16 1.16 0 001.07 0l.74-.35a.74.74 0 00.05-1.31z"/><path class="cls-3" d="M279.62 862l-5-2.83a3 3 0 00-3.31.18 9.8 9.8 0 00-4.41 7.65 3.09 3.09 0 001.29 2.85l5.27 3a6.16 6.16 0 008.41-2.35l.09-.17a6.14 6.14 0 00-2.34-8.33z"/><path class="cls-2" d="M271.32 859.32c1.42-.81 2.67-.77 3.48 0a3.4 3.4 0 00-2.64.5 9.76 9.76 0 00-4.43 7.66 3.4 3.4 0 00.95 2.61c-1.08-.31-1.78-1.39-1.78-3.06a9.8 9.8 0 014.42-7.71zM239.92 840.72c1.53-.89 3.21-1 4.18-.05.5.29 1.23.85 1.23.85s-3.29-.42-4 0a10.35 10.35 0 00-4.78 8.28 6.09 6.09 0 00.43 2l1.08.63s-.18.33-1.21 0-1.73-1.64-1.73-3.45a10.57 10.57 0 014.8-8.26z"/><path class="cls-1" d="M310.84 865.49l143.47-82.83-176.92-102.15-143.47 82.83 176.92 102.15z"/><path class="cls-6" d="M145.83 737.5l-.58 25.44 164.41 94.93 133.33-76.98-.54-25.2"/><path class="cls-7" d="M309.66 827.65l.35 30.6 133.65-76.72v-30.86"/><path class="cls-8" d="M257.24 805.21l52.42 30.26 124.05-71.61M211.79 786.6l21.63 12.48M153.05 752.69l51.73 29.86"/><path class="cls-8" d="M153.05 760.32l156.61 90.42 124.05-71.62"/><path class="cls-6" d="M309.66 827.65v29.61"/><path class="cls-9" d="M309.66 827.65l133.33-76.98-164.41-94.93-133.33 76.98 164.41 94.93z"/><path class="cls-4" d="M203.3 744l95.55-55.17-15.79-9.11-95.55 55.16L203.3 744z"/><path class="cls-10" d="M235.95 743.38l-15.98 9.22M313.76 698.45l-63.19 36.48M303.77 726.14l-63.19 36.48M320.73 735.93l-63.19 36.48M369.32 730.26l-51.62 29.81M388.03 741.07l-51.62 29.8"/><ellipse class="cls-11" cx="300.78" cy="781.68" rx="21.78" ry="12.57"/><path class="cls-12" d="M305.49 773.86l1.14 10.74-13.3.07"/><path class="cls-7" d="M238.54 469l-116.58 74.13-6.62-3V356.45l123.2-71.13 6.42 3.3L238.54 469z"/><path class="cls-3" d="M245.19 472.13l-123.2 71.13V359.58l123.2-71.13v183.68z"/><path class="cls-13" d="M234.11 298.88l-101 58.34v154.83c4.21-2.43 4.21 1.57 8.42-.86s4.21-6.43 8.42-8.86 4.21 1.57 8.42-.86 4.21-6.43 8.42-8.86 4.21 1.57 8.42-.87 4.2-6.42 8.41-8.85 4.21 1.57 8.42-.86 4.21-6.43 8.42-8.86 4.21 1.56 8.42-.87 4.21-6.43 8.42-8.86 4.21 1.57 8.42-.86 4.22-6.43 8.43-8.87V298.88z"/><path stroke-dasharray="4.65 4.65" stroke-width="1.86" stroke-miterlimit="10" fill="none" stroke="#0a4471" d="M149.53 425.41l45.27-26.13"/><path class="cls-15" d="M149.53 444.59l72.25-41.72M149.53 463.89l58.03-33.5"/><ellipse class="cls-11" cx="163.25" cy="381.28" rx="21.27" ry="12.28" transform="rotate(-60 163.244 381.273)"/><path class="cls-12" d="M163.25 373.09v16.37M156.17 385.37l14.17-8.18"/><path class="cls-16" d="M188.13 359.72l33.21-19.17M188.13 375.76l33.21-19.17"/><path class="cls-5" d="M212.67 312.57l-62.93 39.31-2.74-1.41v-9.88c0-3.94 2.4-8.51 5.35-10.22l54.94-31.72a3.29 3.29 0 013.77-.1c1 .73 2.93 2.07 2.93 2.07z"/><path class="cls-5" d="M193.75 307.09l-29.37 17v-4.57c0-3.21 2-7 4.37-8.34l20.64-11.92a2.7 2.7 0 013.09-.07c.78.59 2.26 1.54 2.26 1.54z"/><path class="cls-4" d="M215.21 314.14L149.58 352v-9.88c0-3.93 2.39-8.51 5.34-10.21l55-31.72c2.95-1.71 5.34.1 5.34 4z"/><path class="cls-4" d="M196.3 308.66l-29.37 17V321c0-3.21 1.95-6.94 4.36-8.33l20.64-11.92c2.41-1.39 4.37.08 4.37 3.3z"/><ellipse class="cls-17" cx="186.85" cy="689.19" rx="6.48" ry="3.74"/><ellipse class="cls-17" cx="363.72" cy="541.01" rx="6.48" ry="3.74"/><ellipse class="cls-17" cx="193.37" cy="590.32" rx="6.48" ry="3.74"/><path class="cls-17" d="M636.03 694.05l48.61 28.06"/><ellipse class="cls-17" cx="632.68" cy="691.1" rx="6.48" ry="3.74"/><path class="cls-17" d="M105.05 641.91l77.87 45"/><path class="cls-18" d="M181.61 597.7l-76.56 44.21M321.7 516.82l-120.23 69.42"/><path class="cls-17" d="M359.79 538.74l-38.09-21.92M635.65 841.53l-54.76 31.39"/><ellipse class="cls-17" cx="639" cy="838.58" rx="6.48" ry="3.74"/><path class="cls-17" d="M397.01 832.56l74.52 42.72"/><ellipse class="cls-17" cx="393.68" cy="829.58" rx="6.48" ry="3.74"/><ellipse cx="525.86" cy="883.64" rx="49.64" ry="28.66" stroke="#428ae0" stroke-width="1.86" stroke-miterlimit="10" fill="#fff"/><ellipse class="cls-4" cx="525.86" cy="874.65" rx="49.64" ry="28.66"/><path stroke-width="1.61" stroke="#fff" stroke-miterlimit="10" fill="none" d="M534.1 857.43l.55 22.35H510.2"/><path stroke="#282424" stroke-dasharray="4.65 4.65" stroke-miterlimit="10" fill="none" stroke-width="2" d="M595.68 608.28l78.43 45.28-101.66 58.69-235.86-136.17 101.66-58.69 37.46 21.63"/><path class="cls-17" d="M193.37 510.78v69.3"/><path class="cls-1" d="M575.22 612.75L595.93 624a1.51 1.51 0 010 2.64l-68.31 39.44a8.1 8.1 0 01-8.07 0l-107.83-61.47a1.51 1.51 0 010-2.62l71.62-41.35a1.52 1.52 0 011.53 0l5.62 3.31"/><path class="cls-7" d="M588.7 558.47v26.88c0 22.6-9 44.23-28.84 55l-33.06 17.94a12.29 12.29 0 01-12-.18L427.29 607a3.69 3.69 0 01-1.83-3.18V587M330.15 98.92l16.75-9.63c2.72-1.57 5.33-2.43 8.9-.37L736.7 310.2a41.2 41.2 0 0120.46 35.53v287.7c0 4.85-1.32 7.56-4.29 9.56l-17.38 10.21"/><path class="cls-3" d="M727.69 325.71a23.15 23.15 0 0111.53 20V644c0 8.58-5.22 12.52-11.65 8.81l-389.7-224.94c-6.43-3.72-11.65-13.68-11.65-22.26V108.28c0-8.58 5.22-12.52 11.65-8.81z"/><path class="cls-13" d="M336.22 399.61V110.08l386.45 224.28a13.19 13.19 0 016.55 11.37v282z"/><path class="cls-15" d="M739.22 633.03l-413-238.37"/><path d="M484.61 512.69v15.84c0 18.22-14.21 31.65-30.23 40.34l-26.75 14.51a4.15 4.15 0 00-.1 7.23L515 641.43a12.27 12.27 0 0012 .17l27.18-14.73c16-8.69 21.62-27.87 21.62-46.09v-15.51" stroke-width="1.86" stroke-miterlimit="10" stroke="#0a4471" fill="#fff"/><path class="cls-11" d="M552.05 120c-25.83-16-32.7-18.68-74 7.18-30.13 18.86-24.29 33.58-31.54 55.33 23.2 6.52 60.49 6 56.33 31.33-7.63 46.51 83.67 93.47 83.67 93.47s-2.74-57.53 6.65-91.44c5.84-21.2 16.41-76.75-41.11-95.87z"/><path class="cls-3" d="M595.19 350.32c-31-35.88-91.91-60.85-138.75-53.5S395.77 388.15 425.56 425s104.09 63.26 150.49 53.5c35.47-7.42 42.78-100.81 19.14-128.18z"/><path class="cls-3" d="M410.2 381.54c.72-15.23-5.74-108.52 33.83-120.45 113.13-10.57 161 59.09 163.39 72.59 3.62 20.13 1.5 69.05 1.5 69.05s-36.39 60.74-93.81 27.59c-41.47-23.94-104.91-48.78-104.91-48.78z"/><path class="cls-13" d="M510.66 311.67l-29.57 28.72 3.23-35.08c-7.85-4.53-12.18-10.81-12.18-17.69s4.33-13.17 12.18-17.7c7.1-4.1 16.46-6.36 26.35-6.36s19.24 2.26 26.34 6.36c7.85 4.53 12.17 10.82 12.17 17.7s-4.32 13.16-12.17 17.69c-7.11 4.1-11.93 6.21-21.82 6.21z"/><path class="cls-13" d="M484.32 305.31s-10.27-2.75-16.27 1.95c0 0-4.7-41.74 15.65-48.27l5.74.53z"/><ellipse class="cls-23" cx="511.84" cy="280.9" rx="29.48" ry="17.02"/><path class="cls-23" d="M541.32 279.56v-74.43l-49.78 16.91-9.18 57.52h58.96z"/><path d="M552.44 203.68s-26.19 65.25-74.44 56.55c-38.48-7-23.93-99.32-23.93-99.32l51.48-14.5z" fill="#ffc299"/><path class="cls-25" d="M553.34 396.86s-3.73 30.22-4 80.11M461.58 426.18s10.94 30.87 59.73 19.48M425.9 318.56c-7.11 25.05-11.41 35.91-12.21 45.69-.86 10.32 1.2 33.2 1.2 33.2"/><path class="cls-13" d="M507.05 310.12s11.74 6.92 13.69 19.05c0 0 34.18-13.31 50.61-43.57l-12-9.39z"/><path class="cls-11" d="M558.83 126.69c-15-19.08-45.65-35.5-87-9.64-30.14 18.86-26.64 53-25.86 67.07 14.09 2.74 45.9-.24 64.77-4.05a20.33 20.33 0 0123.47 14c12.36 40.61-3.54 133.61 16.24 136.43 2.74.39 4.7-26.35 21.39-39.91 15.16-39.16 15.77-127.27-13.01-163.9z"/><ellipse class="cls-4" cx="370.98" cy="200.75" rx="5.47" ry="9.47" transform="matrix(.87 -.5 .5 .87 -50.67 212.4)"/><path class="cls-4" d="M371 206.91c-6.12-3.54-11.08-.67-11.08 6.39v3.9a39.84 39.84 0 0012 11.39 17.05 17.05 0 0010.18 2.59v-5.09c-.05-7.09-5-15.65-11.1-19.18z"/><ellipse class="cls-26" cx="371.92" cy="204.65" rx="16.93" ry="29.32" transform="rotate(-30 371.941 204.661)"/><ellipse class="cls-26" cx="641.35" cy="358.43" rx="16.87" ry="29.23" transform="rotate(-30 641.377 358.437)"/><path class="cls-4" d="M632.66 366.12l17.38 10.04v-12.04l-17.38-10.04v12.04z"/><path class="cls-26" d="M646 361.55v-8a10.27 10.27 0 00-4.64-8c-2.56-1.47-4.64-.28-4.64 2.68v8"/><path class="cls-4" transform="matrix(.87 -.5 .5 .87 -58.77 234.8)" d="M404.46 225.92h8.61v2.28h-8.61z"/><path class="cls-4" transform="rotate(-30 408.758 227.066)" d="M408.1 219.61h1.32v14.91h-1.32z"/><path class="cls-4" transform="matrix(.87 -.5 .5 .87 -61.31 244.29)" d="M420.88 235.4h8.61v2.28h-8.61z"/><path class="cls-4" transform="rotate(-30 425.215 236.556)" d="M424.53 229.09h1.32V244h-1.32z"/><path class="cls-4" transform="matrix(.87 -.5 .5 .87 -63.85 253.77)" d="M437.31 244.89h8.61v2.28h-8.61z"/><path class="cls-4" transform="rotate(-30 441.635 246.036)" d="M440.95 238.57h1.32v14.91h-1.32z"/><path class="cls-4" transform="matrix(.87 -.5 .5 .87 -99.94 390.09)" d="M673.63 380.4h8.61v2.28h-8.61z"/><path class="cls-4" transform="rotate(-30 677.948 381.536)" d="M677.28 374.09h1.32V389h-1.32z"/><path class="cls-4" transform="matrix(.87 -.5 .5 .87 -102.48 399.57)" d="M690.06 389.88h8.61v2.28h-8.61z"/><path class="cls-4" transform="rotate(-30 694.405 391.025)" d="M693.7 383.57h1.32v14.91h-1.32z"/><path class="cls-4" transform="matrix(.87 -.5 .5 .87 -105.03 409.06)" d="M706.48 399.37h8.61v2.28h-8.61z"/><path class="cls-4" transform="rotate(-30 710.82 400.524)" d="M710.13 393.05h1.32v14.91h-1.32z"/><path class="cls-15" d="M405.22 286.64l-52.17-30.12M405.22 311.84l-52.17-30.12M705.95 458.77l-68.45-39.89M689.87 474.74l-52.39-30.63"/><path class="cls-16" d="M688.77 558.33l-43.62-25.19a4 4 0 01-1.69-3.21V507.8c0-1.24.76-1.81 1.69-1.27l43.62 25.19a4 4 0 011.68 3.21v22.13c0 1.23-.75 1.8-1.68 1.27z"/><path class="cls-16" d="M662.3 527.47l5.65 9.78 9.26-5.34"/><path class="cls-1" d="M768.15 900.54L583.62 794l126.8-73.21 184.53 106.55-126.8 73.2z"/><path class="cls-6" d="M594.19 783.65v8.16l174.18 100.75 118.97-68.69v-9.18"/><path class="cls-7" d="M768.37 879.25v13.31l119.93-68.85v-13.04"/><path class="cls-8" d="M768.37 885.91l-65.63-37.89"/><path fill="none" stroke-width="2" stroke-linejoin="round" stroke="#0a4471" d="M768.37 892.56v-13.31"/><path class="cls-9" d="M768.37 879.25l-173.14-99.96L714.2 710.6l173.14 99.97-118.97 68.68z"/><ellipse class="cls-16" cx="714.17" cy="753.22" rx="25.03" ry="14.45"/><path class="cls-28" d="M724.44 747.09l-19.51 11.26M704.93 747.09l19.51 11.26"/><path class="cls-16" d="M760.69 761.66c5.43 4.62 5.16 10.86 1.7 16.07s-9.7 9.63-15.85 13.93a8.91 8.91 0 01-4.67 1.94c-3 .19-7.36-2-3.71-6.2s10.83-6.89 18.56-8 22.08-2.45 29.79 2-.49 21.19-10.22 22.52c-1.87.25-4.37-.16-4.62-1.26a3.17 3.17 0 011.45-2.56 36.76 36.76 0 0115.39-5.91c6.26-.92 14.15.94 15.32 4.61.67 2.11-1 4.2-1.92 6.28s-1.07 4.62 1.79 6c3.41 1.63 8.57.56 12.91 1.07 6.61.77 10.13 6 6.16 9.15"/><path class="cls-28" d="M722.41 803.86l57.06 32.95M663.4 769.8l30.96 17.87M646.96 779.29l94.79 54.73"/><path class="cls-3" d="M790.21 866.92h-43.1l21.49-12.48z"/></g></svg>